<svg xmlns:xlink="http://www.w3.org/1999/xlink" xmlns="http://www.w3.org/2000/svg" width="32" height="32" viewBox="0 0 32 32"><path d="M26.512 11.5811C26.1379 9.68166 25.26 7.91774 23.9703 6.47398C22.6806 5.03021 21.0265 3.95972 19.1811 3.37455C19.4138 2.98473 19.6029 2.65745 19.7193 2.46691L19.9942 2.00291L16.5236 0L16.2604 0.464L14.72 3.02691C13.9064 3.13737 13.1071 3.33537 12.336 3.61745C10.3437 4.25255 8.59824 5.49161 7.34154 7.16295C6.08485 8.83429 5.37913 10.8551 5.32218 12.9455C5.13998 14.9504 5.55345 16.9646 6.51078 18.7357C7.46812 20.5068 8.92676 21.956 10.704 22.9018C11.7012 23.4285 12.7381 23.8764 13.8051 24.2415C12.8247 25.6131 11.7905 27.0371 10.7505 28.5018C12.48 29.6829 14.1571 30.8291 15.8662 32.0029C16.0247 31.8022 16.1193 31.6756 16.2138 31.5491C17.8807 29.2495 19.5782 26.9615 21.2233 24.64C22.6575 22.6036 24.1135 20.5673 25.4211 18.4495C26.6393 16.38 27.029 13.9262 26.512 11.5811Z" fill="#FFFFFF"></path><path d="M16.6182 0.369446C17.6204 0.951264 18.6109 1.51854 19.6247 2.0989C19.1084 2.95272 16.9978 6.55999 16.5135 7.36145C17.1245 7.52397 17.7226 7.73207 18.3025 7.98399C19.3325 8.43837 20.2056 9.18655 20.8123 10.1348C21.419 11.0831 21.7325 12.1893 21.7135 13.3149C21.7711 14.4822 21.4638 15.6385 20.8343 16.6233C20.2048 17.608 19.2844 18.3724 18.2007 18.8102C17.4152 19.1774 16.5588 19.3681 15.6917 19.3689C14.8246 19.3697 13.9679 19.1804 13.1818 18.8145C12.3956 18.4487 11.6992 17.915 11.1415 17.2511C10.5837 16.5871 10.1782 15.8091 9.95345 14.9716C9.56257 13.6838 9.67968 12.2951 10.2807 11.0909C10.9236 9.85744 11.6407 8.66472 12.3695 7.46326" fill="#378EF0"></path></svg>